<svg width="54" height="54" fill="none" xmlns="http://www.w3.org/2000/svg"><path d="M43.688 30.375h-8.25a.844.844 0 110-1.688h8.25a.844.844 0 110 1.688z" fill="#E0E2E5"/><path d="M25.313 19.406L27 39.656v1.688h10.125v-1.688l1.688-20.25h-13.5z" fill="#93573D"/><path d="M16.875 19.406v-.843H13.5v2.53h-3.375v8.438h6.75v-.843h3.375v-9.282h-3.375z" fill="#FDD14B"/><path d="M13.5 32.063a.844.844 0 01-.844-.844v-9.282a.843.843 0 111.688 0v9.282a.844.844 0 01-.844.843zm3.496 1.687a.844.844 0 01-.844-.836l-.12-12.656a.844.844 0 011.687-.016l.12 12.656a.844.844 0 01-.835.852h-.008z" fill="#E4BC43"/><path d="M9.281 27.844l1.688 11.812v1.688h10.125v-13.5H9.28z" fill="#E74444"/><path d="M48.938 30.375H47.25a.844.844 0 110-1.688h1.688a.844.844 0 110 1.688z" fill="#E0E2E5"/><path d="M38.813 19.406l-.282 3.375H25.594l-.282-3.375h13.5z" fill="#A4D4F4"/><path d="M23.674 14.344a.844.844 0 01-.702-1.312l.802-1.203a.844.844 0 00-.196-1.143l-.82-.616a2.531 2.531 0 01-.587-3.429l.801-1.203a.844.844 0 011.404.936l-.802 1.203a.844.844 0 00.196 1.143l.821.616a2.531 2.531 0 01.587 3.429l-.801 1.203a.843.843 0 01-.703.376zm-6.75 0a.843.843 0 01-.702-1.312l.802-1.203a.844.844 0 00-.196-1.143l-.82-.616a2.531 2.531 0 01-.587-3.429l.801-1.203a.844.844 0 111.404.936l-.802 1.203a.844.844 0 00.196 1.143l.821.616a2.532 2.532 0 01.587 3.43l-.801 1.202a.844.844 0 01-.703.376zm13.406 0a.843.843 0 01-.701-1.312l.802-1.203a.844.844 0 00-.196-1.143l-.821-.616a2.532 2.532 0 01-.587-3.429l.801-1.203a.844.844 0 111.405.936l-.802 1.203a.844.844 0 00.196 1.143l.821.616a2.532 2.532 0 01.587 3.429l-.801 1.203a.843.843 0 01-.704.376zm21.139 10.969h-9.282a.844.844 0 110-1.688h9.282a.844.844 0 010 1.688zm-5.906 10.125H40.5a.844.844 0 110-1.688h5.063a.844.844 0 110 1.688z" fill="#E0E2E5"/><path d="M51.469 48.938H2.53a.844.844 0 010-1.688h48.94a.844.844 0 010 1.688z" fill="#C2C5C6"/><path d="M2.531 39.656H44.72v1.688a1.687 1.687 0 01-1.688 1.687H4.22a1.687 1.687 0 01-1.688-1.687v-1.688z" fill="#FDD14B"/><path d="M36.281 48.094a5.063 5.063 0 100-10.125 5.063 5.063 0 000 10.125z" fill="#6A7073"/><path d="M36.281 44.719a1.688 1.688 0 100-3.375 1.688 1.688 0 000 3.375z" fill="#99A2A7"/><path d="M10.969 48.094a5.062 5.062 0 100-10.125 5.062 5.062 0 000 10.125z" fill="#6A7073"/><path d="M10.969 44.719a1.688 1.688 0 100-3.375 1.688 1.688 0 000 3.375z" fill="#99A2A7"/><path d="M16.031 36.281H31.22v1.688a1.687 1.687 0 01-1.688 1.687H17.72a1.687 1.687 0 01-1.688-1.687V36.28z" fill="#EA8333"/><path d="M30.529 32.906c.847 0 1.534.756 1.534 1.688 0 .932-.687 1.687-1.535 1.687H16.723c-.848 0-1.535-.755-1.535-1.687s.687-1.688 1.534-1.688H30.53z" fill="#794832"/><path d="M16.875 29.531h13.5v3.375h-13.5v-3.375z" fill="#FDD14B"/><path d="M32.906 30.375c0 1.398-1.187 2.531-2.652 2.531a2.685 2.685 0 01-2.21-1.132 2.723 2.723 0 01-4.419 0 2.723 2.723 0 01-4.42 0 2.683 2.683 0 01-2.21 1.132c-1.464 0-2.651-1.133-2.651-2.531a.843.843 0 01.844-.844h16.874a.843.843 0 01.844.844z" fill="#3BA673"/><path d="M31.219 22.781v-6.75a.843.843 0 01.53-.783l4.219-1.688a.844.844 0 01.627 1.567l-3.689 1.475v6.18H31.22z" fill="#E74444"/><path d="M31.219 19.406h1.687v3.375H31.22v-3.375z" fill="#CE3536"/></svg>